Coordinates
version=1
nRows=63
nColumns=11
inDegrees=no

Units are S.I. units (second, meters, Newtons, ...)
If the header above contains a line with 'inDegrees', this indicates whether rotational values are in degrees (yes) or radians (no).

endheader
time	pelvis_tilt	pelvis_tx	pelvis_ty	hip_flexion_r	knee_angle_r	ankle_angle_r	hip_flexion_l	knee_angle_l	ankle_angle_l	lumbar_extension
315.01	-0.0776526	-0.184356	0.913374	0.328628	-0.37491	0.246755	0.421072	-1.11067	-0.0233118	0
315.02	-0.0821033	-0.186847	0.913999	0.314129	-0.362209	0.248912	0.452379	-1.09797	-0.00657102	0
315.03	-0.0630798	-0.184813	0.916461	0.263524	-0.343372	0.255324	0.442688	-1.06943	0.0123052	0
315.04	-0.0654772	-0.186868	0.916676	0.244936	-0.328362	0.257412	0.467136	-1.04585	0.0262058	0
315.05	-0.0861269	-0.192255	0.91502	0.252623	-0.315005	0.258922	0.518882	-1.02299	0.0412176	0
315.06	-0.0712752	-0.191705	0.915856	0.212839	-0.304935	0.267978	0.514882	-0.98804	0.0551789	0
315.07	-0.0736701	-0.193992	0.915222	0.196725	-0.294138	0.276841	0.535621	-0.953594	0.0676328	0
315.08	-0.0759117	-0.195963	0.914302	0.179628	-0.282091	0.28342	0.554096	-0.91518	0.0775467	0
315.09	-0.07874	-0.197658	0.912972	0.164376	-0.272772	0.289955	0.570624	-0.87234	0.0856338	0
315.1	-0.0831781	-0.199879	0.911269	0.153305	-0.266893	0.29885	0.588262	-0.82724	0.0906081	0
315.11	-0.103413	-0.204519	0.908188	0.162847	-0.257785	0.304821	0.627139	-0.7807	0.0925726	0
315.12	-0.106402	-0.206395	0.906249	0.150222	-0.252877	0.314804	0.639842	-0.729597	0.0904844	0
315.13	-0.0900792	-0.205056	0.905459	0.110507	-0.247298	0.329193	0.622604	-0.672467	0.0929257	0
315.14	-0.11038	-0.208827	0.90179	0.117896	-0.23572	0.334476	0.651688	-0.610448	0.094229	0
315.15	-0.113455	-0.210124	0.899113	0.104897	-0.232381	0.346717	0.656053	-0.547465	0.0916873	0
315.16	-0.116691	-0.211409	0.896276	0.09179	-0.22864	0.35869	0.659991	-0.483863	0.088988	0
315.17	-0.11982	-0.212523	0.893305	0.0787024	-0.225114	0.370685	0.663978	-0.421536	0.0887924	0
315.18	-0.122008	-0.213359	0.890288	0.0633883	-0.220028	0.380674	0.666177	-0.358886	0.0947062	0
315.19	-0.103301	-0.210927	0.888793	0.0187471	-0.212779	0.394323	0.639051	-0.295477	0.106949	0
315.2	-0.103137	-0.210822	0.885791	-0.00355855	-0.200527	0.402786	0.636225	-0.23494	0.120359	0
315.21	-0.10453	-0.210893	0.88269	-0.023646	-0.189134	0.409987	0.635698	-0.179083	0.130837	0
315.22	-0.126731	-0.213601	0.878272	-0.0158651	-0.177827	0.411823	0.664736	-0.133393	0.132796	0
315.23	-0.131665	-0.214305	0.875292	-0.0280576	-0.173323	0.416248	0.674204	-0.100392	0.13859	0
315.24	-0.13409	-0.214367	0.872772	-0.0421395	-0.17042	0.418056	0.684913	-0.0842919	0.144589	0
315.25	-0.138527	-0.214936	0.870087	-0.0535123	-0.168396	0.41695	0.697892	-0.0798887	0.148653	0
315.26	-0.135297	-0.21395	0.867949	-0.0763857	-0.164353	0.416445	0.699876	-0.0847237	0.15399	0
315.27	-0.115695	-0.209976	0.867186	-0.120388	-0.160025	0.415424	0.679909	-0.0992201	0.160123	0
315.28	-0.145375	-0.214045	0.863619	-0.0944758	-0.168098	0.400597	0.729436	-0.137087	0.14326	0
315.29	-0.11957	-0.209452	0.864173	-0.143733	-0.16804	0.394325	0.703027	-0.168327	0.135421	0
315.3	-0.11625	-0.207819	0.863386	-0.160155	-0.174879	0.381733	0.70772	-0.208445	0.119178	0
315.31	-0.117874	-0.206789	0.862605	-0.168494	-0.185798	0.362673	0.715233	-0.243046	0.101615	0
315.32	-0.138713	-0.208464	0.860963	-0.150172	-0.199914	0.338217	0.746364	-0.274254	0.0784099	0
315.33	-0.13786	-0.206874	0.861079	-0.157681	-0.216309	0.31468	0.746469	-0.297691	0.0516848	0
315.34	-0.136435	-0.204887	0.861616	-0.163836	-0.235972	0.284474	0.74691	-0.325917	0.0295098	0
315.35	-0.134533	-0.202776	0.862566	-0.166864	-0.260938	0.251079	0.74829	-0.361611	0.0258276	0
315.36	-0.13066	-0.200676	0.864039	-0.167977	-0.292167	0.212584	0.744131	-0.396089	0.039908	0
315.37	-0.132591	-0.199196	0.865372	-0.153728	-0.335856	0.172327	0.746395	-0.427949	0.0529136	0
315.38	-0.131844	-0.197619	0.867152	-0.137753	-0.387016	0.129357	0.740311	-0.450429	0.0599583	0
315.39	-0.130281	-0.196111	0.869172	-0.116916	-0.446206	0.0849435	0.730209	-0.46643	0.0673398	0
315.4	-0.110582	-0.193019	0.872547	-0.112846	-0.514481	0.0362439	0.694236	-0.477199	0.0803355	0
315.41	-0.130305	-0.194822	0.873612	-0.0507053	-0.591927	-0.0163692	0.707683	-0.48524	0.0945137	0
315.42	-0.10649	-0.190711	0.87725	-0.05055	-0.657113	-0.0579266	0.661921	-0.4901	0.111623	0
315.43	-0.107336	-0.190051	0.879101	-0.0106947	-0.728647	-0.118758	0.649177	-0.494172	0.123038	0
315.44	-0.10602	-0.189966	0.881144	0.0265473	-0.795932	-0.175863	0.633006	-0.498153	0.138249	0
315.45	-0.105813	-0.190323	0.883099	0.0659549	-0.857481	-0.236808	0.619352	-0.503096	0.158864	0
315.46	-0.120378	-0.19349	0.884163	0.125342	-0.917761	-0.276263	0.622176	-0.502949	0.174711	0
315.47	-0.101439	-0.190779	0.887829	0.131173	-0.956717	-0.283548	0.577788	-0.497913	0.188199	0
315.48	-0.0986472	-0.190692	0.890365	0.164314	-1.00137	-0.268738	0.553955	-0.488515	0.195565	0
315.49	-0.0985859	-0.191563	0.892596	0.20134	-1.04514	-0.222532	0.53609	-0.484262	0.206919	0
315.5	-0.114169	-0.195421	0.893839	0.263144	-1.09065	-0.167405	0.536884	-0.474187	0.215024	0
315.51	-0.111677	-0.196	0.896537	0.293961	-1.11507	-0.122509	0.512573	-0.462011	0.222394	0
315.52	-0.110729	-0.19717	0.899072	0.326642	-1.13267	-0.0891234	0.487431	-0.44332	0.225677	0
315.53	-0.111295	-0.19885	0.901379	0.360505	-1.14371	-0.0635486	0.464767	-0.425162	0.227894	0
315.54	-0.107809	-0.199862	0.903956	0.385663	-1.14494	-0.0395974	0.437301	-0.409937	0.231502	0
315.55	-0.0916334	-0.19815	0.907045	0.391852	-1.13755	-0.0200205	0.396542	-0.401122	0.236208	0
315.56	-0.0914099	-0.199478	0.908784	0.420703	-1.13019	0.00170254	0.373145	-0.383364	0.239224	0
315.57	-0.109699	-0.204458	0.908928	0.476692	-1.12412	0.0191038	0.373262	-0.362046	0.239934	0
315.58	-0.110849	-0.206062	0.910119	0.504531	-1.10647	0.0330132	0.351473	-0.343813	0.243034	0
315.59	-0.112064	-0.207665	0.911072	0.530126	-1.08293	0.0488634	0.331274	-0.328824	0.245296	0
315.6	-0.0919755	-0.205812	0.913511	0.520634	-1.0479	0.062602	0.281784	-0.314345	0.251826	0
315.61	-0.110086	-0.210603	0.912591	0.567005	-1.01687	0.0751748	0.283401	-0.29602	0.252886	0
315.62	-0.0929438	-0.208513	0.91401	0.558371	-0.973809	0.0847699	0.239058	-0.282648	0.262161	0
315.63	-0.0919758	-0.209636	0.913936	0.570711	-0.92694	0.0981414	0.214381	-0.264229	0.267466	0
